<?xml version="1.0" encoding="UTF-8"?>
<svg width="700pt" height="700pt" version="1.1" viewBox="0 0 700 700" xmlns="http://www.w3.org/2000/svg">
 <path d="m166.08 34.262c-9.582-0.03125-17.574 7.9688-17.566 17.516l0.25781 429.47-0.003906 0.003906c0.003906 0.78906 0.11328 1.5781 0.32422 2.3398 0.34766 8.3047 2.5547 17.312 7.418 25.293 5.3047 8.707 14.801 16.363 27.07 16.355l358.94-0.26562c4.2969 0.003906 7.9609-3.1094 8.6484-7.3477 0.6875-4.2422-1.8008-8.3555-5.8789-9.707 0 0-20.285-6.2617-20.285-26.676 0-20.418 20.285-26.676 20.285-26.676v-0.003906c0.21484-0.078125 0.42578-0.16797 0.63281-0.26562 0.26953-0.10938 0.53125-0.23828 0.78516-0.375 0.26172-0.14062 0.51172-0.29297 0.75391-0.46094 0.48047-0.32813 0.92578-0.70703 1.332-1.1289 1.7656-1.8164 2.6562-4.3086 2.4453-6.832l1.0938-392.89c0.027344-9.4102-8.2969-17.094-17.312-17.125l-71.23-0.23047v174.78c-0.007812 8.8945-11.75 12.094-16.285 4.4453l-18.73-31.258-18.73 31.258c-4.5391 7.6484-16.262 4.4492-16.27-4.4453v-175.02l-174.98-0.58203v420.51l289.62 0.066406h11.621c-5.9727 6.7344-12.527 13.73-12.527 26.23 0 12.48 6.5664 19.48 12.527 26.215l-336.45 0.26562c-5.5039 0.003906-8.8945-2.6953-12.082-7.9297-3.1875-5.2344-5.043-12.828-5.043-18.473 0-5.5547 1.918-13.141 5.2305-18.422 2.8789-4.5898 6.0898-7.1641 10.562-7.793 0.65625-0.066406 1.2812-0.16406 1.9844-0.16406l17.055-0.007812v-420.56z"/>
</svg>
