<svg width="700pt" height="700pt" version="1.1" viewBox="0 0 700 700" xmlns="http://www.w3.org/2000/svg" xmlns:xlink="http://www.w3.org/1999/xlink">
  <path d="m134.42 78.492 212.92 44.73c0.79297 0.16406 1.5859 0.25781 2.4023 0.25781 0.76953 0 1.5625-0.09375 2.332-0.23438l184.33-37.496v87.012l-23.285 103.71c-0.76953 3.4531 0.050781 7.0859 2.3086 9.8711 2.2227 2.7578 5.5352 4.3867 9.1055 4.3867h46.898c3.5234 0 6.8906-1.5625 9.1016-4.3867 2.2461-2.7539 3.0586-6.3477 2.3086-9.8242l-23.078-103.76v-91.773l12.035-2.4258c5.4648-1.1211 9.3398-5.9258 9.3398-11.48-0.046875-5.5312-3.9727-10.312-9.4258-11.41l-219.73-42.793c-1.4922-0.28125-3.0352-0.28125-4.5273 0.046875l-212.92 42.77c-5.4141 1.0977-9.332 5.832-9.3555 11.363-0.046875 5.5078 3.8281 10.293 9.2383 11.434zm404.67 188.86 8.9375-39.809 8.8438 39.809z"/>
  <path d="m489.74 267.35v-46.668c0-10.688 0-29.422-23.332-33.973v-11.199c-33.945 8.3281-74.574 13.137-116.67 13.137s-82.738-4.7617-116.67-13.137v14.746c-9.2383 5.3438-23.332 15.867-23.332 30.449v46.668c0 17.012 18.363 29.398 35.211 33.508 3.1016 71.914 38.941 141.49 104.79 141.49 65.848 0 101.7-69.578 104.79-141.49 16.852-4.1523 35.207-16.543 35.207-33.531z"/>
  <path d="m466.41 127.35v-3.5664l-109.69 22.309c-2.3086 0.48828-4.668 0.69922-6.9766 0.69922-2.4258 0-4.8281-0.25781-7.1875-0.74609l-109.48-22.984v28.441c66.266 17.523 167.02 17.523 233.33 0.023438z"/>
  <path d="m231.68 401.26 33.438 24.059c-9.332-10.996-17.172-23.707-23.473-37.449z"/>
  <path d="m311.76 458.96 38.012 27.395 38.504-27.578c-11.668 4.3867-24.527 6.8828-38.523 6.8828-13.844 0-26.465-2.4023-37.992-6.6992z"/>
  <path d="m629.74 526.1v-2.0938c0-0.82422-0.074219-1.582-0.23438-2.4258-4.1055-64.633-59.312-114.24-129.04-114.24h-0.14062l-143.8 102.84c-2.0352 1.4688-4.4102 2.1914-6.7891 2.1914-2.4023 0-4.7852-0.76953-6.8125-2.2383l-142.78-102.81h-2.0508c-70.469 0-124.23 48.676-128.1 114.38-0.14062 0.73047-0.23438 1.4922-0.23438 2.293v11.668c0 6.418 5.2266 11.668 11.668 11.668h536.67c6.4219 0 11.668-5.25 11.668-11.668v-3.0508c0.30469-1.0547 0.46484-2.1523 0.46484-3.2891 0-1.082-0.1875-2.2383-0.49219-3.2344z"/>
  <path d="m467.53 402.08-9.9453-13.672c-6.457 14.047-14.484 26.926-24.098 38.012z"/>
</svg>
