<svg width="700pt" height="700pt" version="1.1" viewBox="0 0 700 700" xmlns="http://www.w3.org/2000/svg" xmlns:xlink="http://www.w3.org/1999/xlink">
  <path d="m630 0v11.543h-560v-11.543zm-540.34 17.309h520.69v316.4l-340.04 0.003907 0.042968-120.93c0-2.9531 0.64844-6.5859 3.6328-6.5742l13.332 40.941c1.2891 4.0078 4.1992 7.293 8.0312 9.043l62.316 28.516c8.2031 3.3359 16.238 0.49219 19.906-6.3438 3.5625-6.6406 0.96484-15.031-4.7812-19.332l98.875-98.867c1.5234-1.5273 1.5234-4.0039 0-5.5312-1.5273-1.5273-4.0078-1.5273-5.5312 0l-100.68 100.68-51.613-23.621-17.719-55.125c-1.1211-3.4844-3.7734-6.5703-6.6484-8.3711-8.8828-5.3242-26.812-12.414-45.863-13.758l-12.219 17.238 12.324 100.31-13.758 16.043-13.754-16.043 12.324-100.31-12.227-17.238c-19.051 1.3438-37.094 8.5742-45.969 13.887-2.6836 1.8125-5.2852 4.9219-6.3516 8.2422 0 0-20.496 64.68-20.457 66.367l1.457 60.961c0.19531 8.1523 6.8672 14.629 14.973 14.629 0.11719 0 0.24219-0.003906 0.36328-0.011719 8.2773-0.19531 14.816-7.0625 14.621-15.332l-1.3984-58.43 12.461-38.523c2.9844 0 3.543 3.6133 3.543 6.5625l0.042969 120.93-99.922-0.003906zm99.539 88.871c0 22.512 18.246 40.75 40.75 40.75 22.512 0 40.758-18.246 40.758-40.75 0-22.508-18.246-40.75-40.758-40.75-22.504 0-40.75 18.238-40.75 40.75zm32.289 285.25c0-20.984-17.012-37.992-37.996-37.992-20.988 0-37.996 17.008-37.996 37.992 0 20.988 17.008 37.996 37.996 37.996 20.984 0.003907 37.996-17.008 37.996-37.996zm-37.984 44.543c-41.539 0-75.203 12.836-75.203 49.852v74.176h27.473l-0.011719-69.188c0-2.7539 2.2578-4.9883 5.0352-4.9883 2.7773 0 5.0273 2.2305 5.0273 4.9883l0.019532 69.188h75.312l0.015625-69.188c0-2.7539 2.25-4.9883 5.0273-4.9883 2.7773 0 5.0352 2.2305 5.0352 4.9883l0.003906 69.188h27.473v-74.176c-0.003906-37.02-33.66-49.852-75.207-49.852zm209.41-44.543c0-20.984-17.012-37.992-37.996-37.992-20.988 0-37.996 17.008-37.996 37.992 0 20.988 17.008 37.996 37.996 37.996 20.98 0.003907 37.996-17.008 37.996-37.996zm-37.984 44.543c-41.539 0-75.203 12.836-75.203 49.852v74.176h27.473l-0.011719-69.188c0-2.7539 2.2578-4.9883 5.0352-4.9883s5.0352 2.2305 5.0352 4.9883l0.015626 69.188h75.32l0.011719-69.188c0-2.7539 2.25-4.9883 5.0273-4.9883 2.7812 0 5.0352 2.2305 5.0352 4.9883l-0.011719 69.188h27.473v-74.176c0.007813-37.02-33.656-49.852-75.199-49.852zm209.41-44.543c0-20.984-17.012-37.992-37.992-37.992-20.988 0-37.996 17.008-37.996 37.992 0 20.988 17.008 37.996 37.996 37.996 20.98 0.003907 37.992-17.008 37.992-37.996zm-37.984 44.543c-41.539 0-75.203 12.836-75.203 49.852v74.176h27.469l-0.011719-69.188c0-2.7539 2.2578-4.9883 5.0391-4.9883 2.7773 0 5.0273 2.2305 5.0273 4.9883l0.023438 69.188h75.312l0.023437-69.188c0-2.7539 2.25-4.9883 5.0273-4.9883s5.0273 2.2305 5.0273 4.9883v69.188h27.473v-74.176c0-37.02-33.66-49.852-75.207-49.852z"/>
</svg>
